<?xml version="1.0" encoding="UTF-8"?>
<svg id="Layer_1" data-name="Layer 1" xmlns="http://www.w3.org/2000/svg" viewBox="0 0 1000 1000">
  <defs>
    <style>
      .cls-1 {
        fill: #fff;
      }

      .cls-2 {
        fill: #0e162a;
      }

      .cls-3 {
        fill: #c4a04d;
      }

      .cls-4 {
        fill: #355c63;
      }
    </style>
  </defs>
  <rect class="cls-1" x="0" width="1000" height="1000"/>
  <g>
    <g>
      <path class="cls-4" d="M550.96,396.92c37.39-8.56,41.31,43.61,8.16,45.69-28.67,1.8-27.19-41.35-8.16-45.69Z"/>
      <path class="cls-4" d="M508.2,432.56c32.38-7.26,38.38,38.84,10.79,44.14-30.88,5.95-33.71-39-10.79-44.14h0Z"/>
      <path class="cls-4" d="M591.39,361.26c36.77-8.25,35.92,53.23-1.83,41.2-16.83-5.36-16.34-37.13,1.83-41.2Z"/>
      <path class="cls-4" d="M467.82,468.18c34.03-7.42,32.3,49.77-2.43,39.44-16.06-4.79-15.51-35.52,2.43-39.44Z"/>
      <path class="cls-4" d="M636.55,328.15c17.14,17.14-7.58,44.9-26.72,27.91-19.31-17.16,8.33-46.3,26.72-27.91h0Z"/>
      <path class="cls-4" d="M434.58,508.54c24.6-4.96,28.11,30.21,8.44,34.72-29.02,6.65-26.81-31.02-8.44-34.72Z"/>
      <path class="cls-4" d="M631.79,285.18c23.12-6.79,30.68,26.19,12.64,31.77-24.74,7.66-29.22-26.91-12.64-31.77Z"/>
      <path class="cls-4" d="M634.19,244.72c24.95-7.12,27.35,37.85.54,29.43-14-4.39-12.19-26.11-.54-29.43Z"/>
      <path class="cls-4" d="M624.6,209.1c21.01-6.52,26.76,23.04,10.89,27.65-17.91,5.22-25.45-23.14-10.89-27.65Z"/>
      <path class="cls-4" d="M408.41,691.48c18.06-4.81,24.04,25.05,6.05,27.77-16.98,2.56-20.46-23.94-6.05-27.77Z"/>
      <path class="cls-4" d="M397.77,578.81c-11.43-11.89,10.78-38.46,23.41-22.06,5.78,7.51-8.71,21.86-16.12,24.45-2.09.41-5.83-.9-7.28-2.39Z"/>
      <path class="cls-4" d="M624.77,198.56c-9.82,9.9-28.51-3.81-18.62-17.41,10.77-14.82,30.26,5.67,18.62,17.41Z"/>
      <path class="cls-4" d="M410.77,658.19c2.75-.77,5.3-.71,7.81.79,9.48,4.8,3.73,24.1-6.02,25.08-19.2.8-14.7-22.24-1.78-25.86h-.01Z"/>
      <path class="cls-4" d="M679.34,294.62c18.32-2.81,19.81,31.53-4.91,22.97-9.83-3.4-6.78-21.18,4.91-22.97Z"/>
      <path class="cls-4" d="M662.71,344.52c14.51-2.18,17.09,16.84,5.36,22.13-18.54,8.37-21.92-19.65-5.36-22.13Z"/>
      <path class="cls-4" d="M688.91,247.3c13.74,15.81-22.7,30.92-18.4,5.44,1.55-9.15,13.47-11.12,18.4-5.44Z"/>
      <path class="cls-4" d="M574.64,123.42c14.75-4.94,20.44,14.84,10.31,19.89-16.41,8.18-21.33-16.21-10.31-19.89Z"/>
      <path class="cls-4" d="M605.73,167.67c-13.89,13.75-27.92-15.87-9.97-18.47,11.6-1.68,16.44,12.07,9.97,18.47Z"/>
      <path class="cls-4" d="M417.87,729.48c13.45-3.77,19.15,16.97,6.14,20.74-13.79,4-17.37-17.6-6.14-20.74Z"/>
      <path class="cls-4" d="M660.12,201.8c15.08-5.07,18.77,15.22,8.79,18.48-12.3,4.03-17.44-15.58-8.79-18.48Z"/>
      <path class="cls-4" d="M641.04,168.47c10.27-3.28,14.04,8.9,8.2,12.99-10.32,7.24-17.33-10.08-8.2-12.99Z"/>
      <path class="cls-4" d="M431.89,762.64c10.27-3.28,14.04,8.9,8.2,12.99-10.32,7.24-17.33-10.08-8.2-12.99Z"/>
      <path class="cls-4" d="M617.04,139.76c9.52-2.85,11.01,12.33,4.71,14.21-9.52,2.85-11.01-12.33-4.71-14.21Z"/>
      <path class="cls-4" d="M446.16,791.16c8.81-2.71,14.35,6.21,8.14,10.55-9.3,6.51-17.36-7.72-8.14-10.55Z"/>
    </g>
    <g>
      <g>
        <path class="cls-2" d="M226.09,647.55l-.05-8.38c37.67,1.38,51.71-12.12,51.87-49.7.38-86.74-1.03-175.73.22-258.96-3.65-31.75-23.62-34.7-52.02-34.73l-.07-9.98,205.4.84c30.23,2.02,92.87,14.7,129.7,60.32,10.92,13.52,15.11,12.06,9.86,37.77-18.47-2.48-29.73,3.66-37.12,15.58-17.13-41.31-38.99-67.24-76.62-82.58-10.63-4.34-35.08-12.16-45.61-12.16l-81.44-.05.08,290.98c.04,6.71,3.92,13.26,4.56,14.75,6.65,15.3,31.39,18.44,31.39,18.44l-9.45,17.83h-130.72v.03h.01Z"/>
        <path class="cls-2" d="M422.55,646.52c1.15-2.28,2.89-5.06,4.31-7.7,13.06-24.19,37.04-15.6,66.04-40.74,16.44-14.25,24.48-33.23,33.63-52.09l75.01-54.5c-8.45,91.95-86.73,159.31-179,155.05h0Z"/>
      </g>
      <g>
        <path class="cls-2" d="M565.68,603.75l-.04,66.63,96.68.03c10.18-.07,17.37-5.44,19.85-6.81,16.75-9.25,18.95-26.43,19.2-47.98l9.43.03.08,126.05-9.56-.04c-1.15-22.36-3.31-44.98-28.38-51.83-2.59-.71-16.11-2.83-19.24-2.83h-87.95l.16,136.01c0,15.18,12.35,32.63,27.9,33.89,30.04,2.43,73.82,1.76,100.92-2.51,38.08-5.99,56.71-32.36,68.53-67.45l9.36.03-21.36,90.33-290.18.08v-9.53c27.56,1.33,51.63-2.66,51.91-33.56.45-49.69.39-127.49.34-180.26,0-4.92-.08-7.87.15-14.51,17.9-9.02,21.02-12.19,31.8-20.1,7.17-5.26,11.38-8.52,20.38-15.66h.01Z"/>
        <path class="cls-2" d="M611.07,486.73h133.09v86.07h-11.93c1.26-24.09-4.92-49.02-27.81-59.41-4.65-2.12-13.81-6.92-26.28-7.19l-67.06.03v-19.51h0Z"/>
      </g>
    </g>
    <path class="cls-3" d="M363.87,831.34c-37.33-50.45-27.71-121.69.5-174.21,80.72-150.26,362.24-265.47,395.32-412.74,6.01-26.77,2.97-36.49-2.59-61.76-.53-2.43-3.19-7.73,1.29-7.23,47.14,89.65-21.92,175.61-84.28,235.33-88.2,84.49-200.1,144.85-275.52,242.6-38.64,50.08-62.55,116.78-34.73,178.01h.01Z"/>
  </g>
</svg>